<svg width="20" height="20" viewBox="0 0 20 20" fill="none" xmlns="http://www.w3.org/2000/svg">
<path d="M9.86216 7.29453C8.44834 7.29453 7.29456 8.44831 7.29456 9.86213C7.29456 11.276 8.44834 12.4297 9.86216 12.4297C11.276 12.4297 12.4298 11.276 12.4298 9.86213C12.4298 8.44831 11.276 7.29453 9.86216 7.29453ZM17.563 9.86213C17.563 8.79888 17.5727 7.74526 17.513 6.68393C17.4533 5.45117 17.172 4.3571 16.2706 3.45564C15.3672 2.55226 14.2751 2.27296 13.0423 2.21325C11.979 2.15354 10.9254 2.16317 9.86409 2.16317C8.80083 2.16317 7.74721 2.15354 6.68588 2.21325C5.45312 2.27296 4.35905 2.55419 3.45759 3.45564C2.55421 4.35902 2.27492 5.45117 2.2152 6.68393C2.15549 7.74718 2.16512 8.80081 2.16512 9.86213C2.16512 10.9235 2.15549 11.979 2.2152 13.0403C2.27492 14.2731 2.55614 15.3672 3.45759 16.2686C4.36098 17.172 5.45312 17.4513 6.68588 17.511C7.74914 17.5707 8.80276 17.5611 9.86409 17.5611C10.9273 17.5611 11.981 17.5707 13.0423 17.511C14.2751 17.4513 15.3691 17.1701 16.2706 16.2686C17.174 15.3652 17.4533 14.2731 17.513 13.0403C17.5746 11.979 17.563 10.9254 17.563 9.86213ZM9.86216 13.8127C7.67594 13.8127 5.91155 12.0484 5.91155 9.86213C5.91155 7.67591 7.67594 5.91153 9.86216 5.91153C12.0484 5.91153 13.8128 7.67591 13.8128 9.86213C13.8128 12.0484 12.0484 13.8127 9.86216 13.8127ZM13.9746 6.67237C13.4641 6.67237 13.0519 6.26017 13.0519 5.74973C13.0519 5.23929 13.4641 4.82709 13.9746 4.82709C14.485 4.82709 14.8972 5.23929 14.8972 5.74973C14.8974 5.87093 14.8736 5.99098 14.8273 6.10299C14.781 6.215 14.713 6.31677 14.6273 6.40247C14.5416 6.48818 14.4398 6.55614 14.3278 6.60245C14.2158 6.64876 14.0958 6.67252 13.9746 6.67237Z" fill="#086BED"/>
</svg>
