<svg width="202" height="48" viewBox="0 0 202 48" fill="none" xmlns="http://www.w3.org/2000/svg">
<path d="M64.4884 42.5558V23.6129C64.4884 23.6129 49.8756 25.4762 37.2938 31.7152C24.7121 25.4762 10.0992 23.6129 10.0992 23.6129V42.5558C5.81129 43.5157 2.34144 44.6732 0 46C7.89884 43.5157 21.6372 41.8501 37.2656 41.8501C52.894 41.8501 66.6324 43.4875 74.5312 46C72.218 44.6732 68.7764 43.5157 64.4884 42.5558Z" fill="#1C1D4E"/>
<path d="M14.0768 21.5803V24.2622C19.2675 25.2503 28.7461 27.4523 37.2938 31.7151C27.1946 23.7823 14.0768 21.5803 14.0768 21.5803Z" fill="#313273"/>
<path d="M60.539 21.5803C60.539 21.5803 47.4213 23.7823 37.3221 31.7151C45.8697 27.4805 55.3483 25.2503 60.539 24.2622V21.5803Z" fill="#313273"/>
<path d="M37.3221 21.8344C36.7861 23.0201 35.968 24.0646 35.0088 24.8833L37.2938 28.8639L39.6353 24.8833C38.6479 24.0646 37.858 23.0201 37.3221 21.8344Z" fill="#313274"/>
<path d="M30.3824 18.8701C31.9057 18.8701 33.1752 17.628 33.1752 16.0753C33.1752 14.5508 31.9339 13.2804 30.3824 13.2804C28.859 13.2804 27.5896 14.5226 27.5896 16.0753C27.5896 17.628 28.8308 18.8701 30.3824 18.8701ZM29.4514 14.1274C30.0438 14.1274 30.5234 14.6073 30.5234 15.2001C30.5234 15.793 30.0438 16.2729 29.4514 16.2729C28.859 16.2729 28.3794 15.793 28.3794 15.2001C28.3794 14.6073 28.859 14.1274 29.4514 14.1274Z" fill="#313274"/>
<path d="M41.4408 16.0753C41.4408 17.5997 42.682 18.8701 44.2053 18.8701C45.7287 18.8701 46.9981 17.628 46.9981 16.0753C46.9981 14.5508 45.7569 13.2804 44.2053 13.2804C42.7102 13.3087 41.4408 14.5508 41.4408 16.0753ZM44.5439 15.2001C44.5439 15.793 44.0643 16.2729 43.4719 16.2729C42.8795 16.2729 42.3999 15.793 42.3999 15.2001C42.3999 14.6073 42.8795 14.1274 43.4719 14.1274C44.0643 14.1274 44.5439 14.6073 44.5439 15.2001Z" fill="#313274"/>
<path d="M25.0506 21.5521C26.4329 22.9071 28.323 23.7258 30.3824 23.7258C33.4291 23.7258 36.0808 21.9191 37.3221 19.3218C38.5351 21.9191 41.1869 23.7258 44.2618 23.7258C46.3493 23.7258 48.2112 22.8789 49.5935 21.5521C50.1859 22.399 50.6937 23.3024 51.1168 24.234C52.8377 23.5847 54.4174 23.1048 55.7997 22.7095C54.897 20.8463 53.4865 19.1807 51.7092 17.7691C51.8221 17.2327 51.9067 16.6399 51.9067 16.0753C51.9067 14.946 51.6528 13.8733 51.2015 12.8852C50.6655 11.3043 49.8474 9.83626 48.8036 8.53764L48.7472 1L42.4845 3.93601C40.8483 3.31493 39.0993 3.00439 37.3221 3.00439C35.5448 3.00439 33.7958 3.31493 32.1596 3.93601L25.8687 1L25.8123 8.53764C24.7967 9.83626 23.9787 11.276 23.4427 12.8287C22.9913 13.8168 22.7092 14.9178 22.7092 16.0753C22.7092 16.6681 22.7656 17.2327 22.9067 17.7691C21.1294 19.1807 19.7471 20.8463 18.8444 22.7095C20.1985 23.1048 21.8065 23.6129 23.5273 24.234C23.9504 23.3024 24.4582 22.399 25.0506 21.5521ZM50.2705 16.0753C50.2705 19.4065 47.5624 22.1167 44.2336 22.1167C40.9048 22.1167 38.1966 19.4065 38.1966 16.0753C38.1966 12.744 40.9048 10.0339 44.2336 10.0339C47.5624 10.0621 50.2705 12.7723 50.2705 16.0753ZM37.2939 4.61355C41.1304 4.61355 44.6285 6.27917 47.0264 8.9611C46.1518 8.62233 45.1927 8.42472 44.2053 8.42472C41.1586 8.42472 38.5069 10.2315 37.2656 12.8287C36.0526 10.2315 33.4008 8.42472 30.3259 8.42472C29.3386 8.42472 28.3794 8.62233 27.5331 8.9611C29.9874 6.27917 33.4573 4.61355 37.2939 4.61355ZM30.3824 10.0621C33.7112 10.0621 36.4193 12.7723 36.4193 16.1035C36.4193 19.4347 33.7112 22.1449 30.3824 22.1449C27.0536 22.1449 24.3454 19.4347 24.3454 16.1035C24.3454 12.7723 27.0536 10.0621 30.3824 10.0621Z" fill="#313274"/>
<path d="M91.1473 36.352C89.0353 36.352 87.2326 35.9467 85.7393 35.136C84.2673 34.3253 83.1473 33.1093 82.3793 31.488C81.6113 29.8667 81.2273 27.8187 81.2273 25.344C81.2273 21.696 82.0699 18.944 83.7552 17.088C85.4619 15.232 87.9259 14.304 91.1473 14.304C93.2806 14.304 95.0833 14.7093 96.5553 15.52C98.0273 16.3307 99.1473 17.5573 99.9153 19.2C100.705 20.8213 101.099 22.8693 101.099 25.344C101.099 28.9707 100.246 31.712 98.5393 33.568C96.8539 35.424 94.3899 36.352 91.1473 36.352ZM91.1473 33.312C92.5766 33.312 93.7499 33.0453 94.6673 32.512C95.6059 31.9573 96.2993 31.0933 96.7473 29.92C97.2166 28.7467 97.4513 27.2107 97.4513 25.312C97.4513 23.4347 97.2166 21.92 96.7473 20.768C96.2993 19.5947 95.6059 18.7413 94.6673 18.208C93.7499 17.6533 92.5766 17.376 91.1473 17.376C89.7393 17.376 88.5659 17.6533 87.6273 18.208C86.6886 18.7627 85.9846 19.6267 85.5153 20.8C85.0673 21.952 84.8433 23.4667 84.8433 25.344C84.8433 27.2213 85.0673 28.7467 85.5153 29.92C85.9846 31.0933 86.6886 31.9573 87.6273 32.512C88.5659 33.0453 89.7393 33.312 91.1473 33.312ZM108.586 36L103.242 19.936H106.826L110.89 33.664L109.898 33.856L113.802 19.936H116.586L120.458 33.472H119.658L123.722 19.936H127.178L121.802 36H118.634L114.826 23.424L115.434 23.712L111.754 36H108.586ZM133.321 36H129.993V13.856H133.321V36ZM144.468 36.48C142.889 36.48 141.513 36.16 140.34 35.52C139.188 34.88 138.292 33.9307 137.652 32.672C137.033 31.4133 136.724 29.8773 136.724 28.064C136.724 25.2693 137.374 23.1573 138.676 21.728C139.998 20.2773 141.833 19.552 144.18 19.552C145.908 19.552 147.305 19.936 148.372 20.704C149.438 21.472 150.206 22.5493 150.676 23.936C151.166 25.3013 151.401 26.9013 151.38 28.736H138.74L138.644 26.24H148.82L148.02 27.04C147.956 25.3973 147.614 24.2027 146.996 23.456C146.377 22.688 145.406 22.304 144.084 22.304C143.23 22.304 142.505 22.4853 141.908 22.848C141.31 23.1893 140.852 23.7867 140.532 24.64C140.233 25.472 140.084 26.624 140.084 28.096C140.084 29.888 140.5 31.2533 141.332 32.192C142.164 33.1093 143.39 33.568 145.012 33.568C145.737 33.568 146.409 33.504 147.028 33.376C147.668 33.248 148.254 33.088 148.788 32.896C149.321 32.6827 149.78 32.48 150.164 32.288V35.392C149.417 35.712 148.574 35.968 147.636 36.16C146.697 36.3733 145.641 36.48 144.468 36.48ZM160.567 36.48C159.735 36.48 158.935 36.3947 158.167 36.224C157.399 36.0747 156.695 35.808 156.055 35.424C155.436 35.04 154.935 34.5173 154.551 33.856C154.188 33.1733 154.007 32.3307 154.007 31.328C154.007 30.1333 154.242 29.152 154.711 28.384C155.18 27.616 155.852 27.04 156.727 26.656C157.602 26.272 158.647 26.08 159.863 26.08C160.674 26.08 161.399 26.144 162.039 26.272C162.7 26.4 163.287 26.5813 163.799 26.816C164.332 27.0293 164.78 27.2747 165.143 27.552L165.495 29.76C165.026 29.44 164.396 29.1733 163.607 28.96C162.818 28.7253 161.964 28.608 161.047 28.608C159.831 28.608 158.903 28.8213 158.263 29.248C157.644 29.6747 157.335 30.3147 157.335 31.168C157.335 31.808 157.516 32.3307 157.879 32.736C158.242 33.12 158.69 33.408 159.223 33.6C159.778 33.7707 160.354 33.856 160.951 33.856C162.21 33.856 163.138 33.7707 163.735 33.6C164.332 33.4293 164.631 33.0347 164.631 32.416V25.696C164.631 24.5653 164.29 23.744 163.607 23.232C162.924 22.6987 161.954 22.432 160.695 22.432C159.799 22.432 158.871 22.5813 157.911 22.88C156.951 23.1573 156.162 23.552 155.543 24.064V20.928C156.14 20.5227 157.004 20.2027 158.135 19.968C159.287 19.712 160.471 19.584 161.687 19.584C162.284 19.584 162.882 19.648 163.479 19.776C164.098 19.8827 164.674 20.064 165.207 20.32C165.74 20.5547 166.21 20.8853 166.615 21.312C167.042 21.7173 167.372 22.2187 167.607 22.816C167.842 23.4133 167.959 24.1173 167.959 24.928V32.608C167.959 33.6533 167.628 34.464 166.967 35.04C166.327 35.5947 165.452 35.968 164.343 36.16C163.234 36.3733 161.975 36.48 160.567 36.48ZM172.181 36V21.408C172.458 21.2373 172.97 21.0027 173.717 20.704C174.463 20.4053 175.349 20.1493 176.373 19.936C177.397 19.7013 178.431 19.584 179.477 19.584C180.01 19.584 180.447 19.6267 180.789 19.712C181.13 19.7973 181.418 19.8933 181.653 20V22.688C181.162 22.624 180.65 22.5813 180.117 22.56C179.583 22.5173 179.05 22.5173 178.517 22.56C177.983 22.5813 177.461 22.624 176.949 22.688C176.437 22.752 175.967 22.816 175.541 22.88V36H172.181ZM184.462 21.248C184.931 21.0133 185.454 20.8 186.03 20.608C186.627 20.3947 187.256 20.2133 187.918 20.064C188.579 19.9147 189.251 19.7973 189.934 19.712C190.616 19.6267 191.278 19.584 191.918 19.584C193.432 19.584 194.67 19.7973 195.63 20.224C196.59 20.6293 197.304 21.2693 197.774 22.144C198.243 22.9973 198.478 24.0747 198.478 25.376V36H195.118V25.824C195.118 25.4187 195.064 25.024 194.958 24.64C194.872 24.2347 194.691 23.872 194.414 23.552C194.158 23.2107 193.774 22.944 193.262 22.752C192.771 22.56 192.12 22.464 191.31 22.464C190.734 22.464 190.136 22.5173 189.518 22.624C188.92 22.7307 188.355 22.88 187.822 23.072V36H184.462V21.248Z" fill="#313273"/>
</svg>
